<svg xmlns="http://www.w3.org/2000/svg" xmlns:xlink="http://www.w3.org/1999/xlink" viewBox="0 0 250 250" width="250" height="250"><rect x="0" y="0" width="250" height="250" fill="#ffffff"/><path class="qr-dots" fill-rule="evenodd" fill="#000000" d="M104.62962962962962 9.25925925925926h6.481481481481482v9.25925925925926h-9.25925925925926v-6.481481481481482a2.7777777777777777 2.7777777777777777 0 0 1 2.7777777777777777 -2.7777777777777777z M123.14814814814815 9.25925925925926h6.481481481481482v9.25925925925926h-9.25925925925926v-6.481481481481482a2.7777777777777777 2.7777777777777777 0 0 1 2.7777777777777777 -2.7777777777777777z M129.62962962962965 9.25925925925926h9.25925925925926v9.25925925925926h-9.25925925925926v-9.25925925925926z M86.11111111111111 18.51851851851852h6.481481481481482v6.481481481481482a2.7777777777777777 2.7777777777777777 0 0 1 -2.7777777777777777 2.7777777777777777h-6.481481481481482v-6.481481481481482a2.7777777777777777 2.7777777777777777 0 0 1 2.7777777777777777 -2.7777777777777777z M101.85185185185185 18.51851851851852h9.25925925925926v6.481481481481482a2.7777777777777777 2.7777777777777777 0 0 1 -2.7777777777777777 2.7777777777777777h-6.481481481481482v-9.25925925925926z M129.62962962962965 18.51851851851852h9.25925925925926v9.25925925925926h-9.25925925925926v-9.25925925925926z M138.88888888888889 18.51851851851852h9.25925925925926v9.25925925925926h-9.25925925925926v-9.25925925925926z M148.14814814814815 18.51851851851852h9.25925925925926v9.25925925925926h-9.25925925925926v-9.25925925925926z M123.14814814814815 27.77777777777778h6.481481481481482v9.25925925925926h-9.25925925925926v-6.481481481481482a2.7777777777777777 2.7777777777777777 0 0 1 2.7777777777777777 -2.7777777777777777z M148.14814814814815 27.77777777777778h9.25925925925926v9.25925925925926h-9.25925925925926v-9.25925925925926z M86.11111111111111 37.03703703703704h6.481481481481482v9.25925925925926h-9.25925925925926v-6.481481481481482a2.7777777777777777 2.7777777777777777 0 0 1 2.7777777777777777 -2.7777777777777777z M92.5925925925926 37.03703703703704h9.25925925925926v6.481481481481482a2.7777777777777777 2.7777777777777777 0 0 1 -2.7777777777777777 2.7777777777777777h-6.481481481481482v-9.25925925925926z M111.11111111111111 37.03703703703704h9.25925925925926v6.481481481481482a2.7777777777777777 2.7777777777777777 0 0 1 -2.7777777777777777 2.7777777777777777h-6.481481481481482v-9.25925925925926z M123.14814814814815 37.03703703703704h6.481481481481482v9.25925925925926h-9.25925925925926v-6.481481481481482a2.7777777777777777 2.7777777777777777 0 0 1 2.7777777777777777 -2.7777777777777777z M129.62962962962965 37.03703703703704h9.25925925925926v9.25925925925926h-9.25925925925926v-9.25925925925926z M148.14814814814815 37.03703703703704h9.25925925925926v9.25925925925926h-9.25925925925926v-9.25925925925926z M157.4074074074074 37.03703703703704h9.25925925925926v9.25925925925926h-9.25925925925926v-9.25925925925926z M92.5925925925926 46.2962962962963h6.481481481481482v6.481481481481482a2.7777777777777777 2.7777777777777777 0 0 1 -2.7777777777777777 2.7777777777777777h-6.481481481481482v-6.481481481481482a2.7777777777777777 2.7777777777777777 0 0 1 2.7777777777777777 -2.7777777777777777z M148.14814814814815 46.2962962962963h9.25925925925926v9.25925925925926h-9.25925925925926v-9.25925925925926z M175.92592592592592 46.2962962962963h9.25925925925926v9.25925925925926h-9.25925925925926v-9.25925925925926z M185.18518518518516 46.2962962962963h9.25925925925926v9.25925925925926h-9.25925925925926v-9.25925925925926z M55.55555555555556 55.55555555555556h6.481481481481482v9.25925925925926h-9.25925925925926v-6.481481481481482a2.7777777777777777 2.7777777777777777 0 0 1 2.7777777777777777 -2.7777777777777777z M64.81481481481481 55.55555555555556h9.25925925925926v9.25925925925926h-9.25925925925926v-9.25925925925926z M83.33333333333333 55.55555555555556h9.25925925925926v9.25925925925926h-9.25925925925926v-9.25925925925926z M101.85185185185185 55.55555555555556h6.481481481481482v9.25925925925926h-9.25925925925926v-6.481481481481482a2.7777777777777777 2.7777777777777777 0 0 1 2.7777777777777777 -2.7777777777777777z M129.62962962962965 55.55555555555556h9.25925925925926v9.25925925925926h-9.25925925925926v-9.25925925925926z M148.14814814814815 55.55555555555556h9.25925925925926v9.25925925925926h-9.25925925925926v-9.25925925925926z M157.4074074074074 55.55555555555556h6.481481481481482v9.25925925925926h-9.25925925925926v-6.481481481481482a2.7777777777777777 2.7777777777777777 0 0 1 2.7777777777777777 -2.7777777777777777z M175.92592592592592 55.55555555555556h9.25925925925926v9.25925925925926h-9.25925925925926v-9.25925925925926z M194.44444444444446 55.55555555555556h6.481481481481482v9.25925925925926h-9.25925925925926v-6.481481481481482a2.7777777777777777 2.7777777777777777 0 0 1 2.7777777777777777 -2.7777777777777777z M55.55555555555556 64.81481481481481h9.25925925925926v9.25925925925926h-9.25925925925926v-9.25925925925926z M64.81481481481481 64.81481481481481h9.25925925925926v9.25925925925926h-9.25925925925926v-9.25925925925926z M83.33333333333333 64.81481481481481h9.25925925925926v9.25925925925926h-9.25925925925926v-9.25925925925926z M101.85185185185185 64.81481481481481h6.481481481481482v6.481481481481482a2.7777777777777777 2.7777777777777777 0 0 1 -2.7777777777777777 2.7777777777777777h-6.481481481481482v-6.481481481481482a2.7777777777777777 2.7777777777777777 0 0 1 2.7777777777777777 -2.7777777777777777z M129.62962962962965 64.81481481481481h6.481481481481482v9.25925925925926h-9.25925925925926v-6.481481481481482a2.7777777777777777 2.7777777777777777 0 0 1 2.7777777777777777 -2.7777777777777777z M157.4074074074074 64.81481481481481h6.481481481481482v6.481481481481482a2.7777777777777777 2.7777777777777777 0 0 1 -2.7777777777777777 2.7777777777777777h-6.481481481481482v-6.481481481481482a2.7777777777777777 2.7777777777777777 0 0 1 2.7777777777777777 -2.7777777777777777z M175.92592592592592 64.81481481481481h9.25925925925926v9.25925925925926h-9.25925925925926v-9.25925925925926z M185.18518518518516 64.81481481481481h9.25925925925926v9.25925925925926h-9.25925925925926v-9.25925925925926z M194.44444444444446 64.81481481481481h9.25925925925926v9.25925925925926h-9.25925925925926v-9.25925925925926z M55.55555555555556 74.07407407407408h9.25925925925926v9.25925925925926h-9.25925925925926v-9.25925925925926z M64.81481481481481 74.07407407407408h6.481481481481482v9.25925925925926h-9.25925925925926v-6.481481481481482a2.7777777777777777 2.7777777777777777 0 0 1 2.7777777777777777 -2.7777777777777777z M83.33333333333333 74.07407407407408h9.25925925925926v9.25925925925926h-9.25925925925926v-9.25925925925926z M120.37037037037037 74.07407407407408h9.25925925925926v9.25925925925926h-9.25925925925926v-9.25925925925926z M148.14814814814815 74.07407407407408h9.25925925925926v9.25925925925926h-9.25925925925926v-9.25925925925926z M157.4074074074074 74.07407407407408h6.481481481481482v9.25925925925926h-9.25925925925926v-6.481481481481482a2.7777777777777777 2.7777777777777777 0 0 1 2.7777777777777777 -2.7777777777777777z M194.44444444444446 74.07407407407408h9.25925925925926v9.25925925925926h-9.25925925925926v-9.25925925925926z M55.55555555555556 83.33333333333333h9.25925925925926v9.25925925925926h-9.25925925925926v-9.25925925925926z M64.81481481481481 83.33333333333333h9.25925925925926v9.25925925925926h-9.25925925925926v-9.25925925925926z M108.33333333333333 83.33333333333333h9.25925925925926v9.25925925925926h-9.25925925925926v-9.25925925925926z M120.37037037037037 83.33333333333333h9.25925925925926v9.25925925925926h-9.25925925925926v-9.25925925925926z M138.88888888888889 83.33333333333333h9.25925925925926v9.25925925925926h-9.25925925925926v-9.25925925925926z M157.4074074074074 83.33333333333333h6.481481481481482v9.25925925925926h-9.25925925925926v-6.481481481481482a2.7777777777777777 2.7777777777777777 0 0 1 2.7777777777777777 -2.7777777777777777z M175.92592592592592 83.33333333333333h9.25925925925926v9.25925925925926h-9.25925925925926v-9.25925925925926z M194.44444444444446 83.33333333333333h9.25925925925926v9.25925925925926h-9.25925925925926v-9.25925925925926z M9.25925925925926 92.5925925925926h9.25925925925926v9.25925925925926h-9.25925925925926v-9.25925925925926z M37.03703703703704 92.5925925925926h9.25925925925926v9.25925925925926h-9.25925925925926v-9.25925925925926z M46.2962962962963 92.5925925925926h9.25925925925926v9.25925925925926h-9.25925925925926v-9.25925925925926z M55.55555555555556 92.5925925925926h9.25925925925926v9.25925925925926h-9.25925925925926v-9.25925925925926z M83.33333333333333 92.5925925925926h9.25925925925926v9.25925925925926h-9.25925925925926v-9.25925925925926z M101.85185185185185 92.5925925925926h6.481481481481482v9.25925925925926h-9.25925925925926v-6.481481481481482a2.7777777777777777 2.7777777777777777 0 0 1 2.7777777777777777 -2.7777777777777777z M111.11111111111111 92.5925925925926h6.481481481481482v9.25925925925926h-9.25925925925926v-6.481481481481482a2.7777777777777777 2.7777777777777777 0 0 1 2.7777777777777777 -2.7777777777777777z M129.62962962962965 92.5925925925926h9.25925925925926v9.25925925925926h-9.25925925925926v-9.25925925925926z M157.4074074074074 92.5925925925926h9.25925925925926v9.25925925925926h-9.25925925925926v-9.25925925925926z M166.66666666666666 92.5925925925926h9.25925925925926v9.25925925925926h-9.25925925925926v-9.25925925925926z M194.44444444444446 92.5925925925926h9.25925925925926v9.25925925925926h-9.25925925925926v-9.25925925925926z M9.25925925925926 101.85185185185185h9.25925925925926v9.25925925925926h-9.25925925925926v-9.25925925925926z M37.03703703703704 101.85185185185185h9.25925925925926v9.25925925925926h-9.25925925925926v-9.25925925925926z M55.55555555555556 101.85185185185185h9.25925925925926v9.25925925925926h-9.25925925925926v-9.25925925925926z M64.81481481481481 101.85185185185185h9.25925925925926v9.25925925925926h-9.25925925925926v-9.25925925925926z M83.33333333333333 101.85185185185185h9.25925925925926v9.25925925925926h-9.25925925925926v-9.25925925925926z M101.85185185185185 101.85185185185185h6.481481481481482v9.25925925925926h-9.25925925925926v-6.481481481481482a2.7777777777777777 2.7777777777777777 0 0 1 2.7777777777777777 -2.7777777777777777z M120.37037037037037 101.85185185185185h9.25925925925926v9.25925925925926h-9.25925925925926v-9.25925925925926z M129.62962962962965 101.85185185185185h9.25925925925926v9.25925925925926h-9.25925925925926v-9.25925925925926z M138.88888888888889 101.85185185185185h9.25925925925926v9.25925925925926h-9.25925925925926v-9.25925925925926z M148.14814814814815 101.85185185185185h9.25925925925926v9.25925925925926h-9.25925925925926v-9.25925925925926z M157.4074074074074 101.85185185185185h9.25925925925926v9.25925925925926h-9.25925925925926v-9.25925925925926z M166.66666666666666 101.85185185185185h9.25925925925926v9.25925925925926h-9.25925925925926v-9.25925925925926z M185.18518518518516 101.85185185185185h9.25925925925926v9.25925925925926h-9.25925925925926v-9.25925925925926z M9.25925925925926 111.11111111111111h9.25925925925926v9.25925925925926h-9.25925925925926v-9.25925925925926z M37.03703703703704 111.11111111111111h9.25925925925926v9.25925925925926h-9.25925925925926v-9.25925925925926z M46.2962962962963 111.11111111111111h9.25925925925926v9.25925925925926h-9.25925925925926v-9.25925925925926z M64.81481481481481 111.11111111111111h9.25925925925926v9.25925925925926h-9.25925925925926v-9.25925925925926z M83.33333333333333 111.11111111111111h9.25925925925926v9.25925925925926h-9.25925925925926v-9.25925925925926z M120.37037037037037 111.11111111111111h9.25925925925926v9.25925925925926h-9.25925925925926v-9.25925925925926z M138.88888888888889 111.11111111111111h9.25925925925926v9.25925925925926h-9.25925925925926v-9.25925925925926z M148.14814814814815 111.11111111111111h9.25925925925926v9.25925925925926h-9.25925925925926v-9.25925925925926z M166.66666666666666 111.11111111111111h9.25925925925926v9.25925925925926h-9.25925925925926v-9.25925925925926z M185.18518518518516 111.11111111111111h9.25925925925926v9.25925925925926h-9.25925925925926v-9.25925925925926z M9.25925925925926 120.37037037037037h9.25925925925926v9.25925925925926h-9.25925925925926v-9.25925925925926z M18.51851851851852 120.37037037037037h9.25925925925926v9.25925925925926h-9.25925925925926v-9.25925925925926z M37.03703703703704 120.37037037037037h9.25925925925926v9.25925925925926h-9.25925925925926v-9.25925925925926z M55.55555555555556 120.37037037037037h9.25925925925926v9.25925925925926h-9.25925925925926v-9.25925925925926z M64.81481481481481 120.37037037037037h9.25925925925926v9.25925925925926h-9.25925925925926v-9.25925925925926z M83.33333333333333 120.37037037037037h9.25925925925926v9.25925925925926h-9.25925925925926v-9.25925925925926z M101.85185185185185 120.37037037037037h6.481481481481482v9.25925925925926h-9.25925925925926v-6.481481481481482a2.7777777777777777 2.7777777777777777 0 0 1 2.7777777777777777 -2.7777777777777777z M111.11111111111111 120.37037037037037h6.481481481481482v9.25925925925926h-9.25925925925926v-6.481481481481482a2.7777777777777777 2.7777777777777777 0 0 1 2.7777777777777777 -2.7777777777777777z M129.62962962962965 120.37037037037037h9.25925925925926v9.25925925925926h-9.25925925925926v-9.25925925925926z M157.4074074074074 120.37037037037037h9.25925925925926v9.25925925925926h-9.25925925925926v-9.25925925925926z M166.66666666666666 120.37037037037037h9.25925925925926v9.25925925925926h-9.25925925925926v-9.25925925925926z M185.18518518518516 120.37037037037037h9.25925925925926v9.25925925925926h-9.25925925925926v-9.25925925925926z M9.25925925925926 129.62962962962965h9.25925925925926v9.25925925925926h-9.25925925925926v-9.25925925925926z M18.51851851851852 129.62962962962965h9.25925925925926v9.25925925925926h-9.25925925925926v-9.25925925925926z M46.2962962962963 129.62962962962965h9.25925925925926v9.25925925925926h-9.25925925925926v-9.25925925925926z M55.55555555555556 129.62962962962965h9.25925925925926v9.25925925925926h-9.25925925925926v-9.25925925925926z M64.81481481481481 129.62962962962965h9.25925925925926v9.25925925925926h-9.25925925925926v-9.25925925925926z M83.33333333333333 129.62962962962965h9.25925925925926v9.25925925925926h-9.25925925925926v-9.25925925925926z M101.85185185185185 129.62962962962965h6.481481481481482v9.25925925925926h-9.25925925925926v-6.481481481481482a2.7777777777777777 2.7777777777777777 0 0 1 2.7777777777777777 -2.7777777777777777z M111.11111111111111 129.62962962962965h6.481481481481482v9.25925925925926h-9.25925925925926v-6.481481481481482a2.7777777777777777 2.7777777777777777 0 0 1 2.7777777777777777 -2.7777777777777777z M129.62962962962965 129.62962962962965h9.25925925925926v9.25925925925926h-9.25925925925926v-9.25925925925926z M138.88888888888889 129.62962962962965h9.25925925925926v9.25925925925926h-9.25925925925926v-9.25925925925926z M148.14814814814815 129.62962962962965h9.25925925925926v9.25925925925926h-9.25925925925926v-9.25925925925926z M157.4074074074074 129.62962962962965h9.25925925925926v9.25925925925926h-9.25925925925926v-9.25925925925926z M166.66666666666666 129.62962962962965h9.25925925925926v9.25925925925926h-9.25925925925926v-9.25925925925926z M185.18518518518516 129.62962962962965h9.25925925925926v9.25925925925926h-9.25925925925926v-9.25925925925926z M9.25925925925926 138.88888888888889h9.25925925925926v9.25925925925926h-9.25925925925926v-9.25925925925926z M18.51851851851852 138.88888888888889h9.25925925925926v9.25925925925926h-9.25925925925926v-9.25925925925926z M37.03703703703704 138.88888888888889h9.25925925925926v9.25925925925926h-9.25925925925926v-9.25925925925926z M46.2962962962963 138.88888888888889h9.25925925925926v9.25925925925926h-9.25925925925926v-9.25925925925926z M55.55555555555556 138.88888888888889h9.25925925925926v9.25925925925926h-9.25925925925926v-9.25925925925926z M64.81481481481481 138.88888888888889h9.25925925925926v9.25925925925926h-9.25925925925926v-9.25925925925926z M83.33333333333333 138.88888888888889h9.25925925925926v9.25925925925926h-9.25925925925926v-9.25925925925926z M92.5925925925926 138.88888888888889h6.481481481481482v9.25925925925926h-9.25925925925926v-6.481481481481482a2.7777777777777777 2.7777777777777777 0 0 1 2.7777777777777777 -2.7777777777777777z M101.85185185185185 138.88888888888889h6.481481481481482v9.25925925925926h-9.25925925925926v-6.481481481481482a2.7777777777777777 2.7777777777777777 0 0 1 2.7777777777777777 -2.7777777777777777z M120.37037037037037 138.88888888888889h9.25925925925926v9.25925925925926h-9.25925925925926v-9.25925925925926z M129.62962962962965 138.88888888888889h9.25925925925926v9.25925925925926h-9.25925925925926v-9.25925925925926z M138.88888888888889 138.88888888888889h9.25925925925926v9.25925925925926h-9.25925925925926v-9.25925925925926z M157.4074074074074 138.88888888888889h9.25925925925926v9.25925925925926h-9.25925925925926v-9.25925925925926z M166.66666666666666 138.88888888888889h9.25925925925926v9.25925925925926h-9.25925925925926v-9.25925925925926z M9.25925925925926 148.14814814814815h9.25925925925926v9.25925925925926h-9.25925925925926v-9.25925925925926z M18.51851851851852 148.14814814814815h9.25925925925926v9.25925925925926h-9.25925925925926v-9.25925925925926z M37.03703703703704 148.14814814814815h9.25925925925926v9.25925925925926h-9.25925925925926v-9.25925925925926z M55.55555555555556 148.14814814814815h9.25925925925926v9.25925925925926h-9.25925925925926v-9.25925925925926z M83.33333333333333 148.14814814814815h9.25925925925926v9.25925925925926h-9.25925925925926v-9.25925925925926z M92.5925925925926 148.14814814814815h6.481481481481482v9.25925925925926h-9.25925925925926v-6.481481481481482a2.7777777777777777 2.7777777777777777 0 0 1 2.7777777777777777 -2.7777777777777777z M120.37037037037037 148.14814814814815h9.25925925925926v9.25925925925926h-9.25925925925926v-9.25925925925926z M129.62962962962965 148.14814814814815h9.25925925925926v9.25925925925926h-9.25925925925926v-9.25925925925926z M138.88888888888889 148.14814814814815h9.25925925925926v9.25925925925926h-9.25925925925926v-9.25925925925926z M166.66666666666666 148.14814814814815h9.25925925925926v9.25925925925926h-9.25925925925926v-9.25925925925926z M185.18518518518516 148.14814814814815h9.25925925925926v9.25925925925926h-9.25925925925926v-9.25925925925926z M9.25925925925926 157.4074074074074h9.25925925925926v9.25925925925926h-9.25925925925926v-9.25925925925926z M18.51851851851852 157.4074074074074h9.25925925925926v9.25925925925926h-9.25925925925926v-9.25925925925926z M37.03703703703704 157.4074074074074h9.25925925925926v9.25925925925926h-9.25925925925926v-9.25925925925926z M46.2962962962963 157.4074074074074h9.25925925925926v9.25925925925926h-9.25925925925926v-9.25925925925926z M55.55555555555556 157.4074074074074h9.25925925925926v9.25925925925926h-9.25925925925926v-9.25925925925926z M64.81481481481481 157.4074074074074h9.25925925925926v9.25925925925926h-9.25925925925926v-9.25925925925926z M92.5925925925926 157.4074074074074h6.481481481481482v9.25925925925926h-9.25925925925926v-6.481481481481482a2.7777777777777777 2.7777777777777777 0 0 1 2.7777777777777777 -2.7777777777777777z M101.85185185185185 157.4074074074074h6.481481481481482v9.25925925925926h-9.25925925925926v-6.481481481481482a2.7777777777777777 2.7777777777777777 0 0 1 2.7777777777777777 -2.7777777777777777z M111.11111111111111 157.4074074074074h6.481481481481482v9.25925925925926h-9.25925925925926v-6.481481481481482a2.7777777777777777 2.7777777777777777 0 0 1 2.7777777777777777 -2.7777777777777777z M120.37037037037037 157.4074074074074h9.25925925925926v9.25925925925926h-9.25925925925926v-9.25925925925926z M138.88888888888889 157.4074074074074h9.25925925925926v9.25925925925926h-9.25925925925926v-9.25925925925926z M148.14814814814815 157.4074074074074h9.25925925925926v9.25925925925926h-9.25925925925926v-9.25925925925926z M157.4074074074074 157.4074074074074h9.25925925925926v9.25925925925926h-9.25925925925926v-9.25925925925926z M166.66666666666666 157.4074074074074h9.25925925925926v9.25925925925926h-9.25925925925926v-9.25925925925926z M175.92592592592592 157.4074074074074h6.481481481481482v9.25925925925926h-9.25925925925926v-6.481481481481482a2.7777777777777777 2.7777777777777777 0 0 1 2.7777777777777777 -2.7777777777777777z M185.18518518518516 157.4074074074074h9.25925925925926v9.25925925925926h-9.25925925925926v-9.25925925925926z M194.44444444444446 157.4074074074074h6.481481481481482v9.25925925925926h-9.25925925925926v-6.481481481481482a2.7777777777777777 2.7777777777777777 0 0 1 2.7777777777777777 -2.7777777777777777z M9.25925925925926 166.66666666666666h9.25925925925926v9.25925925925926h-9.25925925925926v-9.25925925925926z M18.51851851851852 166.66666666666666h9.25925925925926v9.25925925925926h-9.25925925925926v-9.25925925925926z M37.03703703703704 166.66666666666666h9.25925925925926v9.25925925925926h-9.25925925925926v-9.25925925925926z M46.2962962962963 166.66666666666666h9.25925925925926v9.25925925925926h-9.25925925925926v-9.25925925925926z M64.81481481481481 166.66666666666666h9.25925925925926v9.25925925925926h-9.25925925925926v-9.25925925925926z M83.33333333333333 166.66666666666666h9.25925925925926v9.25925925925926h-9.25925925925926v-9.25925925925926z M111.11111111111111 166.66666666666666h6.481481481481482v6.481481481481482a2.7777777777777777 2.7777777777777777 0 0 1 -2.7777777777777777 2.7777777777777777h-6.481481481481482v-6.481481481481482a2.7777777777777777 2.7777777777777777 0 0 1 2.7777777777777777 -2.7777777777777777z M120.37037037037037 166.66666666666666h9.25925925925926v9.25925925925926h-9.25925925925926v-9.25925925925926z M129.62962962962965 166.66666666666666h9.25925925925926v9.25925925925926h-9.25925925925926v-9.25925925925926z M148.14814814814815 166.66666666666666h9.25925925925926v9.25925925925926h-9.25925925925926v-9.25925925925926z M175.92592592592592 166.66666666666666h6.481481481481482v6.481481481481482a2.7777777777777777 2.7777777777777777 0 0 1 -2.7777777777777777 2.7777777777777777h-6.481481481481482v-6.481481481481482a2.7777777777777777 2.7777777777777777 0 0 1 2.7777777777777777 -2.7777777777777777z M194.44444444444446 166.66666666666666h9.25925925925926v9.25925925925926h-9.25925925925926v-9.25925925925926z M9.25925925925926 175.92592592592592h9.25925925925926v9.25925925925926h-9.25925925925926v-9.25925925925926z M18.51851851851852 175.92592592592592h9.25925925925926v9.25925925925926h-9.25925925925926v-9.25925925925926z M37.03703703703704 175.92592592592592h9.25925925925926v9.25925925925926h-9.25925925925926v-9.25925925925926z M46.2962962962963 175.92592592592592h9.25925925925926v9.25925925925926h-9.25925925925926v-9.25925925925926z M55.55555555555556 175.92592592592592h9.25925925925926v9.25925925925926h-9.25925925925926v-9.25925925925926z M64.81481481481481 175.92592592592592h9.25925925925926v9.25925925925926h-9.25925925925926v-9.25925925925926z M92.5925925925926 175.92592592592592h6.481481481481482v9.25925925925926h-9.25925925925926v-6.481481481481482a2.7777777777777777 2.7777777777777777 0 0 1 2.7777777777777777 -2.7777777777777777z M101.85185185185185 175.92592592592592h6.481481481481482v9.25925925925926h-9.25925925925926v-6.481481481481482a2.7777777777777777 2.7777777777777777 0 0 1 2.7777777777777777 -2.7777777777777777z M111.11111111111111 175.92592592592592h6.481481481481482v9.25925925925926h-9.25925925925926v-6.481481481481482a2.7777777777777777 2.7777777777777777 0 0 1 2.7777777777777777 -2.7777777777777777z M120.37037037037037 175.92592592592592h9.25925925925926v9.25925925925926h-9.25925925925926v-9.25925925925926z M138.88888888888889 175.92592592592592h9.25925925925926v9.25925925925926h-9.25925925925926v-9.25925925925926z M148.14814814814815 175.92592592592592h9.25925925925926v9.25925925925926h-9.25925925925926v-9.25925925925926z M175.92592592592592 175.92592592592592h6.481481481481482v9.25925925925926h-9.25925925925926v-6.481481481481482a2.7777777777777777 2.7777777777777777 0 0 1 2.7777777777777777 -2.7777777777777777z M185.18518518518516 175.92592592592592h9.25925925925926v9.25925925925926h-9.25925925925926v-9.25925925925926z M194.44444444444446 175.92592592592592h9.25925925925926v9.25925925925926h-9.25925925925926v-9.25925925925926z M9.25925925925926 185.18518518518516h9.25925925925926v9.25925925925926h-9.25925925925926v-9.25925925925926z M18.51851851851852 185.18518518518516h9.25925925925926v9.25925925925926h-9.25925925925926v-9.25925925925926z M37.03703703703704 185.18518518518516h9.25925925925926v9.25925925925926h-9.25925925925926v-9.25925925925926z M46.2962962962963 185.18518518518516h9.25925925925926v9.25925925925926h-9.25925925925926v-9.25925925925926z M64.81481481481481 185.18518518518516h9.25925925925926v9.25925925925926h-9.25925925925926v-9.25925925925926z M83.33333333333333 185.18518518518516h9.25925925925926v9.25925925925926h-9.25925925925926v-9.25925925925926z M92.5925925925926 185.18518518518516h6.481481481481482v9.25925925925926h-9.25925925925926v-6.481481481481482a2.7777777777777777 2.7777777777777777 0 0 1 2.7777777777777777 -2.7777777777777777z M111.11111111111111 185.18518518518516h6.481481481481482v9.25925925925926h-9.25925925925926v-6.481481481481482a2.7777777777777777 2.7777777777777777 0 0 1 2.7777777777777777 -2.7777777777777777z M120.37037037037037 185.18518518518516h9.25925925925926v9.25925925925926h-9.25925925925926v-9.25925925925926z M129.62962962962965 185.18518518518516h9.25925925925926v9.25925925925926h-9.25925925925926v-9.25925925925926z M138.88888888888889 185.18518518518516h9.25925925925926v9.25925925925926h-9.25925925925926v-9.25925925925926z M148.14814814814815 185.18518518518516h9.25925925925926v9.25925925925926h-9.25925925925926v-9.25925925925926z M157.4074074074074 185.18518518518516h9.25925925925926v9.25925925925926h-9.25925925925926v-9.25925925925926z M166.66666666666666 185.18518518518516h9.25925925925926v9.25925925925926h-9.25925925925926v-9.25925925925926z M175.92592592592592 185.18518518518516h6.481481481481482v9.25925925925926h-9.25925925925926v-6.481481481481482a2.7777777777777777 2.7777777777777777 0 0 1 2.7777777777777777 -2.7777777777777777z M9.25925925925926 194.44444444444446h9.25925925925926v9.25925925925926h-9.25925925925926v-9.25925925925926z M18.51851851851852 194.44444444444446h9.25925925925926v9.25925925925926h-9.25925925925926v-9.25925925925926z M37.03703703703704 194.44444444444446h9.25925925925926v9.25925925925926h-9.25925925925926v-9.25925925925926z M46.2962962962963 194.44444444444446h9.25925925925926v9.25925925925926h-9.25925925925926v-9.25925925925926z M55.55555555555556 194.44444444444446h9.25925925925926v9.25925925925926h-9.25925925925926v-9.25925925925926z M64.81481481481481 194.44444444444446h9.25925925925926v9.25925925925926h-9.25925925925926v-9.25925925925926z M92.5925925925926 194.44444444444446h6.481481481481482v9.25925925925926h-9.25925925925926v-6.481481481481482a2.7777777777777777 2.7777777777777777 0 0 1 2.7777777777777777 -2.7777777777777777z M101.85185185185185 194.44444444444446h9.25925925925926v9.25925925925926h-9.25925925925926v-9.25925925925926z M111.11111111111111 194.44444444444446h6.481481481481482v9.25925925925926h-9.25925925925926v-6.481481481481482a2.7777777777777777 2.7777777777777777 0 0 1 2.7777777777777777 -2.7777777777777777z M120.37037037037037 194.44444444444446h9.25925925925926v9.25925925925926h-9.25925925925926v-9.25925925925926z M129.62962962962965 194.44444444444446h9.25925925925926v9.25925925925926h-9.25925925925926v-9.25925925925926z M138.88888888888889 194.44444444444446h9.25925925925926v9.25925925925926h-9.25925925925926v-9.25925925925926z M148.14814814814815 194.44444444444446h9.25925925925926v9.25925925925926h-9.25925925925926v-9.25925925925926z M157.4074074074074 194.44444444444446h6.481481481481482v9.25925925925926h-9.25925925925926v-6.481481481481482a2.7777777777777777 2.7777777777777777 0 0 1 2.7777777777777777 -2.7777777777777777z M166.66666666666666 194.44444444444446h9.25925925925926v9.25925925925926h-9.25925925925926v-9.25925925925926z M185.18518518518516 194.44444444444446h9.25925925925926v9.25925925925926h-9.25925925925926v-9.25925925925926z M194.44444444444446 194.44444444444446h9.25925925925926v9.25925925925926h-9.25925925925926v-9.25925925925926z M9.25925925925926 203.7037037037037h9.25925925925926v9.25925925925926h-9.25925925925926v-9.25925925925926z M18.51851851851852 203.7037037037037h9.25925925925926v9.25925925925926h-9.25925925925926v-9.25925925925926z M37.03703703703704 203.7037037037037h9.25925925925926v9.25925925925926h-9.25925925925926v-9.25925925925926z M46.2962962962963 203.7037037037037h9.25925925925926v9.25925925925926h-9.25925925925926v-9.25925925925926z M64.81481481481481 203.7037037037037h9.25925925925926v9.25925925925926h-9.25925925925926v-9.25925925925926z M83.33333333333333 203.7037037037037h9.25925925925926v9.25925925925926h-9.25925925925926v-9.25925925925926z M92.5925925925926 203.7037037037037h9.25925925925926v9.25925925925926h-9.25925925925926v-9.25925925925926z M111.11111111111111 203.7037037037037h6.481481481481482v9.25925925925926h-9.25925925925926v-6.481481481481482a2.7777777777777777 2.7777777777777777 0 0 1 2.7777777777777777 -2.7777777777777777z M129.62962962962965 203.7037037037037h9.25925925925926v9.25925925925926h-9.25925925925926v-9.25925925925926z M138.88888888888889 203.7037037037037h9.25925925925926v9.25925925925926h-9.25925925925926v-9.25925925925926z M157.4074074074074 203.7037037037037h6.481481481481482v9.25925925925926h-9.25925925925926v-6.481481481481482a2.7777777777777777 2.7777777777777777 0 0 1 2.7777777777777777 -2.7777777777777777z M166.66666666666666 203.7037037037037h9.25925925925926v9.25925925925926h-9.25925925925926v-9.25925925925926z M185.18518518518516 203.7037037037037h9.25925925925926v9.25925925925926h-9.25925925925926v-9.25925925925926z M9.25925925925926 212.96296296296296h9.25925925925926v9.25925925925926h-9.25925925925926v-9.25925925925926z M18.51851851851852 212.96296296296296h9.25925925925926v9.25925925925926h-9.25925925925926v-9.25925925925926z M37.03703703703704 212.96296296296296h9.25925925925926v9.25925925925926h-9.25925925925926v-9.25925925925926z M46.2962962962963 212.96296296296296h9.25925925925926v9.25925925925926h-9.25925925925926v-9.25925925925926z M55.55555555555556 212.96296296296296h9.25925925925926v9.25925925925926h-9.25925925925926v-9.25925925925926z M64.81481481481481 212.96296296296296h9.25925925925926v9.25925925925926h-9.25925925925926v-9.25925925925926z M83.33333333333333 212.96296296296296h9.25925925925926v9.25925925925926h-9.25925925925926v-9.25925925925926z M101.85185185185185 212.96296296296296h6.481481481481482v9.25925925925926h-9.25925925925926v-6.481481481481482a2.7777777777777777 2.7777777777777777 0 0 1 2.7777777777777777 -2.7777777777777777z M111.11111111111111 212.96296296296296h9.25925925925926v9.25925925925926h-9.25925925925926v-9.25925925925926z M120.37037037037037 212.96296296296296h9.25925925925926v9.25925925925926h-9.25925925925926v-9.25925925925926z M129.62962962962965 212.96296296296296h9.25925925925926v9.25925925925926h-9.25925925925926v-9.25925925925926z M138.88888888888889 212.96296296296296h9.25925925925926v9.25925925925926h-9.25925925925926v-9.25925925925926z M157.4074074074074 212.96296296296296h9.25925925925926v9.25925925925926h-9.25925925925926v-9.25925925925926z M166.66666666666666 212.96296296296296h9.25925925925926v9.25925925925926h-9.25925925925926v-9.25925925925926z M175.92592592592592 212.96296296296296h6.481481481481482v9.25925925925926h-9.25925925925926v-6.481481481481482a2.7777777777777777 2.7777777777777777 0 0 1 2.7777777777777777 -2.7777777777777777z M185.18518518518516 212.96296296296296h9.25925925925926v9.25925925925926h-9.25925925925926v-9.25925925925926z M9.25925925925926 222.22222222222223h9.25925925925926v9.25925925925926h-9.25925925925926v-9.25925925925926z M18.51851851851852 222.22222222222223h9.25925925925926v9.25925925925926h-9.25925925925926v-9.25925925925926z M37.03703703703704 222.22222222222223h9.25925925925926v9.25925925925926h-9.25925925925926v-9.25925925925926z M55.55555555555556 222.22222222222223h9.25925925925926v9.25925925925926h-9.25925925925926v-9.25925925925926z M64.81481481481481 222.22222222222223h9.25925925925926v9.25925925925926h-9.25925925925926v-9.25925925925926z M83.33333333333333 222.22222222222223h9.25925925925926v9.25925925925926h-9.25925925925926v-9.25925925925926z M101.85185185185185 222.22222222222223h9.25925925925926v9.25925925925926h-9.25925925925926v-9.25925925925926z M111.11111111111111 222.22222222222223h6.481481481481482v9.25925925925926h-9.25925925925926v-6.481481481481482a2.7777777777777777 2.7777777777777777 0 0 1 2.7777777777777777 -2.7777777777777777z M120.37037037037037 222.22222222222223h9.25925925925926v9.25925925925926h-9.25925925925926v-9.25925925925926z M129.62962962962965 222.22222222222223h9.25925925925926v9.25925925925926h-9.25925925925926v-9.25925925925926z M138.88888888888889 222.22222222222223h9.25925925925926v9.25925925925926h-9.25925925925926v-9.25925925925926z M148.14814814814815 222.22222222222223h9.25925925925926v9.25925925925926h-9.25925925925926v-9.25925925925926z M157.4074074074074 222.22222222222223h9.25925925925926v9.25925925925926h-9.25925925925926v-9.25925925925926z M175.92592592592592 222.22222222222223h6.481481481481482v9.25925925925926h-9.25925925925926v-6.481481481481482a2.7777777777777777 2.7777777777777777 0 0 1 2.7777777777777777 -2.7777777777777777z M185.18518518518516 222.22222222222223h9.25925925925926v9.25925925925926h-9.25925925925926v-9.25925925925926z M194.44444444444446 222.22222222222223h9.25925925925926v9.25925925925926h-9.25925925925926v-9.25925925925926z M203.7037037037037 222.22222222222223h9.25925925925926v9.25925925925926h-9.25925925925926v-9.25925925925926z M212.96296296296296 222.22222222222223h9.25925925925926v9.25925925925926h-9.25925925925926v-9.25925925925926z M222.22222222222223 222.22222222222223h6.481481481481482v9.25925925925926h-9.25925925925926v-6.481481481481482a2.7777777777777777 2.7777777777777777 0 0 1 2.7777777777777777 -2.7777777777777777z M231.4814814814815 222.22222222222223h9.25925925925926v9.25925925925926h-9.25925925925926v-9.25925925925926z M9.25925925925926 231.4814814814815h9.25925925925926v9.25925925925926h-9.25925925925926v-9.25925925925926z M18.51851851851852 231.4814814814815h9.25925925925926v9.25925925925926h-9.25925925925926v-9.25925925925926z M37.03703703703704 231.4814814814815h6.481481481481482v9.25925925925926h-9.25925925925926v-6.481481481481482a2.7777777777777777 2.7777777777777777 0 0 1 2.7777777777777777 -2.7777777777777777z M99.07407407407408 231.4814814814815h9.25925925925926v9.25925925925926h-9.25925925925926v-9.25925925925926z M111.11111111111111 231.4814814814815h6.481481481481482v9.25925925925926h-9.25925925925926v-6.481481481481482a2.7777777777777777 2.7777777777777777 0 0 1 2.7777777777777777 -2.7777777777777777z M129.62962962962965 231.4814814814815h9.25925925925926v9.25925925925926h-9.25925925925926v-9.25925925925926z M148.14814814814815 231.4814814814815h9.25925925925926v9.25925925925926h-9.25925925925926v-9.25925925925926z M166.66666666666666 231.4814814814815h9.25925925925926v9.25925925925926h-9.25925925925926v-9.25925925925926z M175.92592592592592 231.4814814814815h9.25925925925926v9.25925925925926h-9.25925925925926v-9.25925925925926z M185.18518518518516 231.4814814814815h9.25925925925926v9.25925925925926h-9.25925925925926v-9.25925925925926z M222.22222222222223 231.4814814814815h6.481481481481482v9.25925925925926h-9.25925925925926v-6.481481481481482a2.7777777777777777 2.7777777777777777 0 0 1 2.7777777777777777 -2.7777777777777777z M231.4814814814815 231.4814814814815h9.25925925925926v9.25925925925926h-9.25925925925926v-9.25925925925926z M9.25925925925926 240.74074074074075h9.25925925925926v9.25925925925926h-9.25925925925926v-9.25925925925926z M18.51851851851852 240.74074074074075h9.25925925925926v9.25925925925926h-9.25925925925926v-9.25925925925926z M64.81481481481481 240.74074074074075h9.25925925925926v9.25925925925926h-9.25925925925926v-9.25925925925926z M83.33333333333333 240.74074074074075h9.25925925925926v9.25925925925926h-9.25925925925926v-9.25925925925926z M129.62962962962965 240.74074074074075h6.481481481481482v9.25925925925926h-9.25925925925926v-6.481481481481482a2.7777777777777777 2.7777777777777777 0 0 1 2.7777777777777777 -2.7777777777777777z M148.14814814814815 240.74074074074075h9.25925925925926v9.25925925925926h-9.25925925925926v-9.25925925925926z M166.66666666666666 240.74074074074075h9.25925925925926v9.25925925925926h-9.25925925925926v-9.25925925925926z M185.18518518518516 240.74074074074075h9.25925925925926v9.25925925925926h-9.25925925925926v-9.25925925925926z M222.22222222222223 240.74074074074075h6.481481481481482v9.25925925925926h-9.25925925925926v-6.481481481481482a2.7777777777777777 2.7777777777777777 0 0 1 2.7777777777777777 -2.7777777777777777z"/></svg>
