<svg xmlns="http://www.w3.org/2000/svg" xmlns:xlink="http://www.w3.org/1999/xlink" viewBox="0 0 250 250" width="250" height="250"><rect x="0" y="0" width="250" height="250" fill="#ffffff"/><path class="qr-dots" fill-rule="evenodd" fill="#000000" d="M104.62962962962962 9.25925925925926h6.481481481481482v9.25925925925926h-9.25925925925926v-6.481481481481482a2.7777777777777777 2.7777777777777777 0 0 1 2.7777777777777777 -2.7777777777777777z M123.14814814814815 9.25925925925926h6.481481481481482v9.25925925925926h-9.25925925925926v-6.481481481481482a2.7777777777777777 2.7777777777777777 0 0 1 2.7777777777777777 -2.7777777777777777z M129.62962962962965 9.25925925925926h9.25925925925926v9.25925925925926h-9.25925925925926v-9.25925925925926z M86.11111111111111 18.51851851851852h6.481481481481482v6.481481481481482a2.7777777777777777 2.7777777777777777 0 0 1 -2.7777777777777777 2.7777777777777777h-6.481481481481482v-6.481481481481482a2.7777777777777777 2.7777777777777777 0 0 1 2.7777777777777777 -2.7777777777777777z M101.85185185185185 18.51851851851852h9.25925925925926v6.481481481481482a2.7777777777777777 2.7777777777777777 0 0 1 -2.7777777777777777 2.7777777777777777h-6.481481481481482v-9.25925925925926z M129.62962962962965 18.51851851851852h9.25925925925926v9.25925925925926h-9.25925925925926v-9.25925925925926z M138.88888888888889 18.51851851851852h9.25925925925926v9.25925925925926h-9.25925925925926v-9.25925925925926z M148.14814814814815 18.51851851851852h9.25925925925926v9.25925925925926h-9.25925925925926v-9.25925925925926z M123.14814814814815 27.77777777777778h6.481481481481482v9.25925925925926h-9.25925925925926v-6.481481481481482a2.7777777777777777 2.7777777777777777 0 0 1 2.7777777777777777 -2.7777777777777777z M148.14814814814815 27.77777777777778h9.25925925925926v9.25925925925926h-9.25925925925926v-9.25925925925926z M86.11111111111111 37.03703703703704h6.481481481481482v9.25925925925926h-9.25925925925926v-6.481481481481482a2.7777777777777777 2.7777777777777777 0 0 1 2.7777777777777777 -2.7777777777777777z M92.59259259259261 37.03703703703704h9.25925925925926v9.25925925925926h-9.25925925925926v-9.25925925925926z M101.85185185185185 37.03703703703704h9.25925925925926v6.481481481481482a2.7777777777777777 2.7777777777777777 0 0 1 -2.7777777777777777 2.7777777777777777h-6.481481481481482v-9.25925925925926z M120.37037037037038 37.03703703703704h9.25925925925926v9.25925925925926h-9.25925925925926v-9.25925925925926z M129.62962962962965 37.03703703703704h9.25925925925926v9.25925925925926h-9.25925925925926v-9.25925925925926z M138.88888888888889 37.03703703703704h9.25925925925926v9.25925925925926h-9.25925925925926v-9.25925925925926z M148.14814814814815 37.03703703703704h9.25925925925926v9.25925925925926h-9.25925925925926v-9.25925925925926z M157.40740740740742 37.03703703703704h9.25925925925926v9.25925925925926h-9.25925925925926v-9.25925925925926z M92.59259259259261 46.2962962962963h9.25925925925926v9.25925925925926h-9.25925925925926v-9.25925925925926z M157.40740740740742 46.2962962962963h9.25925925925926v6.481481481481482a2.7777777777777777 2.7777777777777777 0 0 1 -2.7777777777777777 2.7777777777777777h-6.481481481481482v-9.25925925925926z M86.11111111111111 55.55555555555556h6.481481481481482v9.25925925925926h-9.25925925925926v-6.481481481481482a2.7777777777777777 2.7777777777777777 0 0 1 2.7777777777777777 -2.7777777777777777z M92.59259259259261 55.55555555555556h9.25925925925926v6.481481481481482a2.7777777777777777 2.7777777777777777 0 0 1 -2.7777777777777777 2.7777777777777777h-6.481481481481482v-9.25925925925926z M113.88888888888889 55.55555555555556h6.481481481481482v9.25925925925926h-9.25925925925926v-6.481481481481482a2.7777777777777777 2.7777777777777777 0 0 1 2.7777777777777777 -2.7777777777777777z M120.37037037037038 55.55555555555556h9.25925925925926v9.25925925925926h-9.25925925925926v-9.25925925925926z M129.62962962962965 55.55555555555556h9.25925925925926v6.481481481481482a2.7777777777777777 2.7777777777777777 0 0 1 -2.7777777777777777 2.7777777777777777h-6.481481481481482v-9.25925925925926z M150.92592592592592 55.55555555555556h6.481481481481482v6.481481481481482a2.7777777777777777 2.7777777777777777 0 0 1 -2.7777777777777777 2.7777777777777777h-6.481481481481482v-6.481481481481482a2.7777777777777777 2.7777777777777777 0 0 1 2.7777777777777777 -2.7777777777777777z M83.33333333333334 64.81481481481481h9.25925925925926v6.481481481481482a2.7777777777777777 2.7777777777777777 0 0 1 -2.7777777777777777 2.7777777777777777h-6.481481481481482v-9.25925925925926z M104.62962962962962 64.81481481481481h6.481481481481482v9.25925925925926h-9.25925925925926v-6.481481481481482a2.7777777777777777 2.7777777777777777 0 0 1 2.7777777777777777 -2.7777777777777777z M120.37037037037038 64.81481481481481h9.25925925925926v6.481481481481482a2.7777777777777777 2.7777777777777777 0 0 1 -2.7777777777777777 2.7777777777777777h-6.481481481481482v-9.25925925925926z M141.66666666666666 64.81481481481481h6.481481481481482v6.481481481481482a2.7777777777777777 2.7777777777777777 0 0 1 -2.7777777777777777 2.7777777777777777h-6.481481481481482v-6.481481481481482a2.7777777777777777 2.7777777777777777 0 0 1 2.7777777777777777 -2.7777777777777777z M160.1851851851852 64.81481481481481h6.481481481481482v6.481481481481482a2.7777777777777777 2.7777777777777777 0 0 1 -2.7777777777777777 2.7777777777777777h-6.481481481481482v-6.481481481481482a2.7777777777777777 2.7777777777777777 0 0 1 2.7777777777777777 -2.7777777777777777z M95.37037037037038 74.07407407407408h6.481481481481482v9.25925925925926h-9.25925925925926v-6.481481481481482a2.7777777777777777 2.7777777777777777 0 0 1 2.7777777777777777 -2.7777777777777777z M101.85185185185185 74.07407407407408h9.25925925925926v9.25925925925926h-9.25925925925926v-9.25925925925926z M111.11111111111111 74.07407407407408h9.25925925925926v9.25925925925926h-9.25925925925926v-9.25925925925926z M12.037037037037038 83.33333333333334h6.481481481481482v9.25925925925926h-9.25925925925926v-6.481481481481482a2.7777777777777777 2.7777777777777777 0 0 1 2.7777777777777777 -2.7777777777777777z M18.51851851851852 83.33333333333334h9.25925925925926v9.25925925925926h-9.25925925925926v-9.25925925925926z M27.77777777777778 83.33333333333334h9.25925925925926v9.25925925925926h-9.25925925925926v-9.25925925925926z M37.03703703703704 83.33333333333334h9.25925925925926v9.25925925925926h-9.25925925925926v-9.25925925925926z M46.2962962962963 83.33333333333334h9.25925925925926v9.25925925925926h-9.25925925925926v-9.25925925925926z M67.59259259259258 83.33333333333334h6.481481481481482v9.25925925925926h-9.25925925925926v-6.481481481481482a2.7777777777777777 2.7777777777777777 0 0 1 2.7777777777777777 -2.7777777777777777z M74.07407407407408 83.33333333333334h9.25925925925926v9.25925925925926h-9.25925925925926v-9.25925925925926z M83.33333333333334 83.33333333333334h9.25925925925926v9.25925925925926h-9.25925925925926v-9.25925925925926z M92.59259259259261 83.33333333333334h9.25925925925926v6.481481481481482a2.7777777777777777 2.7777777777777777 0 0 1 -2.7777777777777777 2.7777777777777777h-6.481481481481482v-9.25925925925926z M111.11111111111111 83.33333333333334h9.25925925925926v6.481481481481482a2.7777777777777777 2.7777777777777777 0 0 1 -2.7777777777777777 2.7777777777777777h-6.481481481481482v-9.25925925925926z M132.40740740740742 83.33333333333334h6.481481481481482v9.25925925925926h-9.25925925925926v-6.481481481481482a2.7777777777777777 2.7777777777777777 0 0 1 2.7777777777777777 -2.7777777777777777z M138.88888888888889 83.33333333333334h9.25925925925926v9.25925925925926h-9.25925925925926v-9.25925925925926z M148.14814814814815 83.33333333333334h9.25925925925926v9.25925925925926h-9.25925925925926v-9.25925925925926z M157.40740740740742 83.33333333333334h9.25925925925926v9.25925925925926h-9.25925925925926v-9.25925925925926z M166.66666666666669 83.33333333333334h9.25925925925926v6.481481481481482a2.7777777777777777 2.7777777777777777 0 0 1 -2.7777777777777777 2.7777777777777777h-6.481481481481482v-9.25925925925926z M187.96296296296296 83.33333333333334h6.481481481481482v9.25925925925926h-9.25925925925926v-6.481481481481482a2.7777777777777777 2.7777777777777777 0 0 1 2.7777777777777777 -2.7777777777777777z M206.4814814814815 83.33333333333334h6.481481481481482v6.481481481481482a2.7777777777777777 2.7777777777777777 0 0 1 -2.7777777777777777 2.7777777777777777h-6.481481481481482v-6.481481481481482a2.7777777777777777 2.7777777777777777 0 0 1 2.7777777777777777 -2.7777777777777777z M225 83.33333333333334h6.481481481481482v9.25925925925926h-9.25925925925926v-6.481481481481482a2.7777777777777777 2.7777777777777777 0 0 1 2.7777777777777777 -2.7777777777777777z M27.77777777777778 92.59259259259261h9.25925925925926v9.25925925925926h-9.25925925925926v-9.25925925925926z M37.03703703703704 92.59259259259261h9.25925925925926v9.25925925925926h-9.25925925925926v-9.25925925925926z M46.2962962962963 92.59259259259261h9.25925925925926v6.481481481481482a2.7777777777777777 2.7777777777777777 0 0 1 -2.7777777777777777 2.7777777777777777h-6.481481481481482v-9.25925925925926z M74.07407407407408 92.59259259259261h9.25925925925926v9.25925925925926h-9.25925925925926v-9.25925925925926z M83.33333333333334 92.59259259259261h9.25925925925926v9.25925925925926h-9.25925925925926v-9.25925925925926z M104.62962962962962 92.59259259259261h6.481481481481482v9.25925925925926h-9.25925925925926v-6.481481481481482a2.7777777777777777 2.7777777777777777 0 0 1 2.7777777777777777 -2.7777777777777777z M123.14814814814815 92.59259259259261h6.481481481481482v6.481481481481482a2.7777777777777777 2.7777777777777777 0 0 1 -2.7777777777777777 2.7777777777777777h-6.481481481481482v-6.481481481481482a2.7777777777777777 2.7777777777777777 0 0 1 2.7777777777777777 -2.7777777777777777z M185.1851851851852 92.59259259259261h9.25925925925926v6.481481481481482a2.7777777777777777 2.7777777777777777 0 0 1 -2.7777777777777777 2.7777777777777777h-6.481481481481482v-9.25925925925926z M222.22222222222223 92.59259259259261h9.25925925925926v9.25925925925926h-9.25925925925926v-9.25925925925926z M12.037037037037038 101.85185185185185h6.481481481481482v9.25925925925926h-9.25925925925926v-6.481481481481482a2.7777777777777777 2.7777777777777777 0 0 1 2.7777777777777777 -2.7777777777777777z M27.77777777777778 101.85185185185185h9.25925925925926v6.481481481481482a2.7777777777777777 2.7777777777777777 0 0 1 -2.7777777777777777 2.7777777777777777h-6.481481481481482v-9.25925925925926z M67.59259259259258 101.85185185185185h6.481481481481482v9.25925925925926h-9.25925925925926v-6.481481481481482a2.7777777777777777 2.7777777777777777 0 0 1 2.7777777777777777 -2.7777777777777777z M74.07407407407408 101.85185185185185h9.25925925925926v9.25925925925926h-9.25925925925926v-9.25925925925926z M83.33333333333334 101.85185185185185h9.25925925925926v9.25925925925926h-9.25925925925926v-9.25925925925926z M101.85185185185185 101.85185185185185h9.25925925925926v6.481481481481482a2.7777777777777777 2.7777777777777777 0 0 1 -2.7777777777777777 2.7777777777777777h-6.481481481481482v-9.25925925925926z M141.66666666666666 101.85185185185185h6.481481481481482v9.25925925925926h-9.25925925925926v-6.481481481481482a2.7777777777777777 2.7777777777777777 0 0 1 2.7777777777777777 -2.7777777777777777z M148.14814814814815 101.85185185185185h9.25925925925926v6.481481481481482a2.7777777777777777 2.7777777777777777 0 0 1 -2.7777777777777777 2.7777777777777777h-6.481481481481482v-9.25925925925926z M206.4814814814815 101.85185185185185h6.481481481481482v6.481481481481482a2.7777777777777777 2.7777777777777777 0 0 1 -2.7777777777777777 2.7777777777777777h-6.481481481481482v-6.481481481481482a2.7777777777777777 2.7777777777777777 0 0 1 2.7777777777777777 -2.7777777777777777z M222.22222222222223 101.85185185185185h9.25925925925926v9.25925925925926h-9.25925925925926v-9.25925925925926z M231.4814814814815 101.85185185185185h9.25925925925926v9.25925925925926h-9.25925925925926v-9.25925925925926z M9.25925925925926 111.11111111111111h9.25925925925926v6.481481481481482a2.7777777777777777 2.7777777777777777 0 0 1 -2.7777777777777777 2.7777777777777777h-6.481481481481482v-9.25925925925926z M39.81481481481482 111.11111111111111h6.481481481481482v9.25925925925926h-9.25925925925926v-6.481481481481482a2.7777777777777777 2.7777777777777777 0 0 1 2.7777777777777777 -2.7777777777777777z M46.2962962962963 111.11111111111111h9.25925925925926v9.25925925925926h-9.25925925925926v-9.25925925925926z M74.07407407407408 111.11111111111111h9.25925925925926v9.25925925925926h-9.25925925925926v-9.25925925925926z M83.33333333333334 111.11111111111111h9.25925925925926v6.481481481481482a2.7777777777777777 2.7777777777777777 0 0 1 -2.7777777777777777 2.7777777777777777h-6.481481481481482v-9.25925925925926z M123.14814814814815 111.11111111111111h6.481481481481482v9.25925925925926h-9.25925925925926v-6.481481481481482a2.7777777777777777 2.7777777777777777 0 0 1 2.7777777777777777 -2.7777777777777777z M138.88888888888889 111.11111111111111h9.25925925925926v6.481481481481482a2.7777777777777777 2.7777777777777777 0 0 1 -2.7777777777777777 2.7777777777777777h-6.481481481481482v-9.25925925925926z M160.1851851851852 111.11111111111111h6.481481481481482v9.25925925925926h-9.25925925925926v-6.481481481481482a2.7777777777777777 2.7777777777777777 0 0 1 2.7777777777777777 -2.7777777777777777z M166.66666666666669 111.11111111111111h9.25925925925926v9.25925925925926h-9.25925925925926v-9.25925925925926z M175.92592592592595 111.11111111111111h9.25925925925926v9.25925925925926h-9.25925925925926v-9.25925925925926z M185.1851851851852 111.11111111111111h9.25925925925926v9.25925925925926h-9.25925925925926v-9.25925925925926z M194.44444444444446 111.11111111111111h9.25925925925926v9.25925925925926h-9.25925925925926v-9.25925925925926z M231.4814814814815 111.11111111111111h9.25925925925926v9.25925925925926h-9.25925925925926v-9.25925925925926z M21.296296296296298 120.37037037037038h6.481481481481482v9.25925925925926h-9.25925925925926v-6.481481481481482a2.7777777777777777 2.7777777777777777 0 0 1 2.7777777777777777 -2.7777777777777777z M27.77777777777778 120.37037037037038h9.25925925925926v6.481481481481482a2.7777777777777777 2.7777777777777777 0 0 1 -2.7777777777777777 2.7777777777777777h-6.481481481481482v-9.25925925925926z M46.2962962962963 120.37037037037038h9.25925925925926v9.25925925925926h-9.25925925925926v-9.25925925925926z M67.59259259259258 120.37037037037038h6.481481481481482v9.25925925925926h-9.25925925925926v-6.481481481481482a2.7777777777777777 2.7777777777777777 0 0 1 2.7777777777777777 -2.7777777777777777z M74.07407407407408 120.37037037037038h9.25925925925926v9.25925925925926h-9.25925925925926v-9.25925925925926z M95.37037037037038 120.37037037037038h6.481481481481482v9.25925925925926h-9.25925925925926v-6.481481481481482a2.7777777777777777 2.7777777777777777 0 0 1 2.7777777777777777 -2.7777777777777777z M101.85185185185185 120.37037037037038h9.25925925925926v6.481481481481482a2.7777777777777777 2.7777777777777777 0 0 1 -2.7777777777777777 2.7777777777777777h-6.481481481481482v-9.25925925925926z M120.37037037037038 120.37037037037038h9.25925925925926v9.25925925925926h-9.25925925925926v-9.25925925925926z M129.62962962962965 120.37037037037038h9.25925925925926v9.25925925925926h-9.25925925925926v-9.25925925925926z M150.92592592592592 120.37037037037038h6.481481481481482v6.481481481481482a2.7777777777777777 2.7777777777777777 0 0 1 -2.7777777777777777 2.7777777777777777h-6.481481481481482v-6.481481481481482a2.7777777777777777 2.7777777777777777 0 0 1 2.7777777777777777 -2.7777777777777777z M166.66666666666669 120.37037037037038h9.25925925925926v9.25925925925926h-9.25925925925926v-9.25925925925926z M175.92592592592595 120.37037037037038h9.25925925925926v6.481481481481482a2.7777777777777777 2.7777777777777777 0 0 1 -2.7777777777777777 2.7777777777777777h-6.481481481481482v-9.25925925925926z M194.44444444444446 120.37037037037038h9.25925925925926v6.481481481481482a2.7777777777777777 2.7777777777777777 0 0 1 -2.7777777777777777 2.7777777777777777h-6.481481481481482v-9.25925925925926z M215.74074074074073 120.37037037037038h6.481481481481482v9.25925925925926h-9.25925925925926v-6.481481481481482a2.7777777777777777 2.7777777777777777 0 0 1 2.7777777777777777 -2.7777777777777777z M222.22222222222223 120.37037037037038h9.25925925925926v9.25925925925926h-9.25925925925926v-9.25925925925926z M231.4814814814815 120.37037037037038h9.25925925925926v6.481481481481482a2.7777777777777777 2.7777777777777777 0 0 1 -2.7777777777777777 2.7777777777777777h-6.481481481481482v-9.25925925925926z M12.037037037037038 129.62962962962965h6.481481481481482v9.25925925925926h-9.25925925925926v-6.481481481481482a2.7777777777777777 2.7777777777777777 0 0 1 2.7777777777777777 -2.7777777777777777z M18.51851851851852 129.62962962962965h9.25925925925926v6.481481481481482a2.7777777777777777 2.7777777777777777 0 0 1 -2.7777777777777777 2.7777777777777777h-6.481481481481482v-9.25925925925926z M46.2962962962963 129.62962962962965h9.25925925925926v9.25925925925926h-9.25925925925926v-9.25925925925926z M55.55555555555556 129.62962962962965h9.25925925925926v9.25925925925926h-9.25925925925926v-9.25925925925926z M74.07407407407408 129.62962962962965h9.25925925925926v9.25925925925926h-9.25925925925926v-9.25925925925926z M129.62962962962965 129.62962962962965h9.25925925925926v9.25925925925926h-9.25925925925926v-9.25925925925926z M160.1851851851852 129.62962962962965h6.481481481481482v6.481481481481482a2.7777777777777777 2.7777777777777777 0 0 1 -2.7777777777777777 2.7777777777777777h-6.481481481481482v-6.481481481481482a2.7777777777777777 2.7777777777777777 0 0 1 2.7777777777777777 -2.7777777777777777z M187.96296296296296 129.62962962962965h6.481481481481482v9.25925925925926h-9.25925925925926v-6.481481481481482a2.7777777777777777 2.7777777777777777 0 0 1 2.7777777777777777 -2.7777777777777777z M206.4814814814815 129.62962962962965h6.481481481481482v9.25925925925926h-9.25925925925926v-6.481481481481482a2.7777777777777777 2.7777777777777777 0 0 1 2.7777777777777777 -2.7777777777777777z M222.22222222222223 129.62962962962965h9.25925925925926v9.25925925925926h-9.25925925925926v-9.25925925925926z M9.25925925925926 138.88888888888889h9.25925925925926v9.25925925925926h-9.25925925925926v-9.25925925925926z M46.2962962962963 138.88888888888889h9.25925925925926v9.25925925925926h-9.25925925925926v-9.25925925925926z M55.55555555555556 138.88888888888889h9.25925925925926v9.25925925925926h-9.25925925925926v-9.25925925925926z M64.81481481481481 138.88888888888889h9.25925925925926v9.25925925925926h-9.25925925925926v-9.25925925925926z M74.07407407407408 138.88888888888889h9.25925925925926v9.25925925925926h-9.25925925925926v-9.25925925925926z M83.33333333333334 138.88888888888889h9.25925925925926v9.25925925925926h-9.25925925925926v-9.25925925925926z M113.88888888888889 138.88888888888889h6.481481481481482v9.25925925925926h-9.25925925925926v-6.481481481481482a2.7777777777777777 2.7777777777777777 0 0 1 2.7777777777777777 -2.7777777777777777z M120.37037037037038 138.88888888888889h9.25925925925926v9.25925925925926h-9.25925925925926v-9.25925925925926z M129.62962962962965 138.88888888888889h9.25925925925926v9.25925925925926h-9.25925925925926v-9.25925925925926z M138.88888888888889 138.88888888888889h9.25925925925926v9.25925925925926h-9.25925925925926v-9.25925925925926z M148.14814814814815 138.88888888888889h9.25925925925926v6.481481481481482a2.7777777777777777 2.7777777777777777 0 0 1 -2.7777777777777777 2.7777777777777777h-6.481481481481482v-9.25925925925926z M169.44444444444446 138.88888888888889h6.481481481481482v6.481481481481482a2.7777777777777777 2.7777777777777777 0 0 1 -2.7777777777777777 2.7777777777777777h-6.481481481481482v-6.481481481481482a2.7777777777777777 2.7777777777777777 0 0 1 2.7777777777777777 -2.7777777777777777z M185.1851851851852 138.88888888888889h9.25925925925926v9.25925925925926h-9.25925925925926v-9.25925925925926z M194.44444444444446 138.88888888888889h9.25925925925926v9.25925925925926h-9.25925925925926v-9.25925925925926z M203.70370370370372 138.88888888888889h9.25925925925926v6.481481481481482a2.7777777777777777 2.7777777777777777 0 0 1 -2.7777777777777777 2.7777777777777777h-6.481481481481482v-9.25925925925926z M222.22222222222223 138.88888888888889h9.25925925925926v9.25925925925926h-9.25925925925926v-9.25925925925926z M231.4814814814815 138.88888888888889h9.25925925925926v9.25925925925926h-9.25925925925926v-9.25925925925926z M9.25925925925926 148.14814814814815h9.25925925925926v9.25925925925926h-9.25925925925926v-9.25925925925926z M74.07407407407408 148.14814814814815h9.25925925925926v9.25925925925926h-9.25925925925926v-9.25925925925926z M83.33333333333334 148.14814814814815h9.25925925925926v9.25925925925926h-9.25925925925926v-9.25925925925926z M92.59259259259261 148.14814814814815h9.25925925925926v9.25925925925926h-9.25925925925926v-9.25925925925926z M101.85185185185185 148.14814814814815h9.25925925925926v9.25925925925926h-9.25925925925926v-9.25925925925926z M111.11111111111111 148.14814814814815h9.25925925925926v9.25925925925926h-9.25925925925926v-9.25925925925926z M138.88888888888889 148.14814814814815h9.25925925925926v6.481481481481482a2.7777777777777777 2.7777777777777777 0 0 1 -2.7777777777777777 2.7777777777777777h-6.481481481481482v-9.25925925925926z M160.1851851851852 148.14814814814815h6.481481481481482v9.25925925925926h-9.25925925925926v-6.481481481481482a2.7777777777777777 2.7777777777777777 0 0 1 2.7777777777777777 -2.7777777777777777z M185.1851851851852 148.14814814814815h9.25925925925926v9.25925925925926h-9.25925925925926v-9.25925925925926z M194.44444444444446 148.14814814814815h9.25925925925926v9.25925925925926h-9.25925925925926v-9.25925925925926z M231.4814814814815 148.14814814814815h9.25925925925926v6.481481481481482a2.7777777777777777 2.7777777777777777 0 0 1 -2.7777777777777777 2.7777777777777777h-6.481481481481482v-9.25925925925926z M9.25925925925926 157.40740740740742h9.25925925925926v6.481481481481482a2.7777777777777777 2.7777777777777777 0 0 1 -2.7777777777777777 2.7777777777777777h-6.481481481481482v-9.25925925925926z M39.81481481481482 157.40740740740742h6.481481481481482v6.481481481481482a2.7777777777777777 2.7777777777777777 0 0 1 -2.7777777777777777 2.7777777777777777h-6.481481481481482v-6.481481481481482a2.7777777777777777 2.7777777777777777 0 0 1 2.7777777777777777 -2.7777777777777777z M67.59259259259258 157.40740740740742h6.481481481481482v6.481481481481482a2.7777777777777777 2.7777777777777777 0 0 1 -2.7777777777777777 2.7777777777777777h-6.481481481481482v-6.481481481481482a2.7777777777777777 2.7777777777777777 0 0 1 2.7777777777777777 -2.7777777777777777z M111.11111111111111 157.40740740740742h9.25925925925926v6.481481481481482a2.7777777777777777 2.7777777777777777 0 0 1 -2.7777777777777777 2.7777777777777777h-6.481481481481482v-9.25925925925926z M157.40740740740742 157.40740740740742h9.25925925925926v9.25925925925926h-9.25925925925926v-9.25925925925926z M166.66666666666669 157.40740740740742h9.25925925925926v9.25925925925926h-9.25925925925926v-9.25925925925926z M175.92592592592595 157.40740740740742h9.25925925925926v9.25925925925926h-9.25925925925926v-9.25925925925926z M185.1851851851852 157.40740740740742h9.25925925925926v9.25925925925926h-9.25925925925926v-9.25925925925926z M194.44444444444446 157.40740740740742h9.25925925925926v9.25925925925926h-9.25925925925926v-9.25925925925926z M215.74074074074073 157.40740740740742h6.481481481481482v6.481481481481482a2.7777777777777777 2.7777777777777777 0 0 1 -2.7777777777777777 2.7777777777777777h-6.481481481481482v-6.481481481481482a2.7777777777777777 2.7777777777777777 0 0 1 2.7777777777777777 -2.7777777777777777z M86.11111111111111 166.66666666666669h6.481481481481482v9.25925925925926h-9.25925925925926v-6.481481481481482a2.7777777777777777 2.7777777777777777 0 0 1 2.7777777777777777 -2.7777777777777777z M92.59259259259261 166.66666666666669h9.25925925925926v9.25925925925926h-9.25925925925926v-9.25925925925926z M101.85185185185185 166.66666666666669h9.25925925925926v6.481481481481482a2.7777777777777777 2.7777777777777777 0 0 1 -2.7777777777777777 2.7777777777777777h-6.481481481481482v-9.25925925925926z M123.14814814814815 166.66666666666669h6.481481481481482v9.25925925925926h-9.25925925925926v-6.481481481481482a2.7777777777777777 2.7777777777777777 0 0 1 2.7777777777777777 -2.7777777777777777z M129.62962962962965 166.66666666666669h9.25925925925926v9.25925925925926h-9.25925925925926v-9.25925925925926z M150.92592592592592 166.66666666666669h6.481481481481482v9.25925925925926h-9.25925925925926v-6.481481481481482a2.7777777777777777 2.7777777777777777 0 0 1 2.7777777777777777 -2.7777777777777777z M157.40740740740742 166.66666666666669h9.25925925925926v9.25925925925926h-9.25925925925926v-9.25925925925926z M194.44444444444446 166.66666666666669h9.25925925925926v9.25925925925926h-9.25925925925926v-9.25925925925926z M203.70370370370372 166.66666666666669h9.25925925925926v6.481481481481482a2.7777777777777777 2.7777777777777777 0 0 1 -2.7777777777777777 2.7777777777777777h-6.481481481481482v-9.25925925925926z M83.33333333333334 175.92592592592595h9.25925925925926v6.481481481481482a2.7777777777777777 2.7777777777777777 0 0 1 -2.7777777777777777 2.7777777777777777h-6.481481481481482v-9.25925925925926z M129.62962962962965 175.92592592592595h9.25925925925926v9.25925925925926h-9.25925925925926v-9.25925925925926z M138.88888888888889 175.92592592592595h9.25925925925926v6.481481481481482a2.7777777777777777 2.7777777777777777 0 0 1 -2.7777777777777777 2.7777777777777777h-6.481481481481482v-9.25925925925926z M157.40740740740742 175.92592592592595h9.25925925925926v9.25925925925926h-9.25925925925926v-9.25925925925926z M178.70370370370372 175.92592592592595h6.481481481481482v6.481481481481482a2.7777777777777777 2.7777777777777777 0 0 1 -2.7777777777777777 2.7777777777777777h-6.481481481481482v-6.481481481481482a2.7777777777777777 2.7777777777777777 0 0 1 2.7777777777777777 -2.7777777777777777z M194.44444444444446 175.92592592592595h9.25925925925926v9.25925925925926h-9.25925925925926v-9.25925925925926z M215.74074074074073 175.92592592592595h6.481481481481482v9.25925925925926h-9.25925925925926v-6.481481481481482a2.7777777777777777 2.7777777777777777 0 0 1 2.7777777777777777 -2.7777777777777777z M222.22222222222223 175.92592592592595h9.25925925925926v9.25925925925926h-9.25925925925926v-9.25925925925926z M231.4814814814815 175.92592592592595h9.25925925925926v9.25925925925926h-9.25925925925926v-9.25925925925926z M104.62962962962962 185.1851851851852h6.481481481481482v6.481481481481482a2.7777777777777777 2.7777777777777777 0 0 1 -2.7777777777777777 2.7777777777777777h-6.481481481481482v-6.481481481481482a2.7777777777777777 2.7777777777777777 0 0 1 2.7777777777777777 -2.7777777777777777z M123.14814814814815 185.1851851851852h6.481481481481482v9.25925925925926h-9.25925925925926v-6.481481481481482a2.7777777777777777 2.7777777777777777 0 0 1 2.7777777777777777 -2.7777777777777777z M129.62962962962965 185.1851851851852h9.25925925925926v6.481481481481482a2.7777777777777777 2.7777777777777777 0 0 1 -2.7777777777777777 2.7777777777777777h-6.481481481481482v-9.25925925925926z M150.92592592592592 185.1851851851852h6.481481481481482v9.25925925925926h-9.25925925925926v-6.481481481481482a2.7777777777777777 2.7777777777777777 0 0 1 2.7777777777777777 -2.7777777777777777z M157.40740740740742 185.1851851851852h9.25925925925926v9.25925925925926h-9.25925925925926v-9.25925925925926z M194.44444444444446 185.1851851851852h9.25925925925926v9.25925925925926h-9.25925925925926v-9.25925925925926z M203.70370370370372 185.1851851851852h9.25925925925926v6.481481481481482a2.7777777777777777 2.7777777777777777 0 0 1 -2.7777777777777777 2.7777777777777777h-6.481481481481482v-9.25925925925926z M222.22222222222223 185.1851851851852h9.25925925925926v9.25925925925926h-9.25925925925926v-9.25925925925926z M231.4814814814815 185.1851851851852h9.25925925925926v9.25925925925926h-9.25925925925926v-9.25925925925926z M86.11111111111111 194.44444444444446h6.481481481481482v9.25925925925926h-9.25925925925926v-6.481481481481482a2.7777777777777777 2.7777777777777777 0 0 1 2.7777777777777777 -2.7777777777777777z M120.37037037037038 194.44444444444446h9.25925925925926v6.481481481481482a2.7777777777777777 2.7777777777777777 0 0 1 -2.7777777777777777 2.7777777777777777h-6.481481481481482v-9.25925925925926z M141.66666666666666 194.44444444444446h6.481481481481482v9.25925925925926h-9.25925925925926v-6.481481481481482a2.7777777777777777 2.7777777777777777 0 0 1 2.7777777777777777 -2.7777777777777777z M148.14814814814815 194.44444444444446h9.25925925925926v9.25925925925926h-9.25925925925926v-9.25925925925926z M157.40740740740742 194.44444444444446h9.25925925925926v9.25925925925926h-9.25925925925926v-9.25925925925926z M166.66666666666669 194.44444444444446h9.25925925925926v9.25925925925926h-9.25925925925926v-9.25925925925926z M175.92592592592595 194.44444444444446h9.25925925925926v9.25925925925926h-9.25925925925926v-9.25925925925926z M185.1851851851852 194.44444444444446h9.25925925925926v9.25925925925926h-9.25925925925926v-9.25925925925926z M194.44444444444446 194.44444444444446h9.25925925925926v9.25925925925926h-9.25925925925926v-9.25925925925926z M215.74074074074073 194.44444444444446h6.481481481481482v9.25925925925926h-9.25925925925926v-6.481481481481482a2.7777777777777777 2.7777777777777777 0 0 1 2.7777777777777777 -2.7777777777777777z M222.22222222222223 194.44444444444446h9.25925925925926v9.25925925925926h-9.25925925925926v-9.25925925925926z M231.4814814814815 194.44444444444446h9.25925925925926v9.25925925925926h-9.25925925925926v-9.25925925925926z M83.33333333333334 203.70370370370372h9.25925925925926v9.25925925925926h-9.25925925925926v-9.25925925925926z M157.40740740740742 203.70370370370372h9.25925925925926v9.25925925925926h-9.25925925925926v-9.25925925925926z M166.66666666666669 203.70370370370372h9.25925925925926v9.25925925925926h-9.25925925925926v-9.25925925925926z M175.92592592592595 203.70370370370372h9.25925925925926v6.481481481481482a2.7777777777777777 2.7777777777777777 0 0 1 -2.7777777777777777 2.7777777777777777h-6.481481481481482v-9.25925925925926z M194.44444444444446 203.70370370370372h9.25925925925926v9.25925925925926h-9.25925925925926v-9.25925925925926z M203.70370370370372 203.70370370370372h9.25925925925926v9.25925925925926h-9.25925925925926v-9.25925925925926z M212.96296296296296 203.70370370370372h9.25925925925926v9.25925925925926h-9.25925925925926v-9.25925925925926z M222.22222222222223 203.70370370370372h9.25925925925926v9.25925925925926h-9.25925925925926v-9.25925925925926z M231.4814814814815 203.70370370370372h9.25925925925926v9.25925925925926h-9.25925925925926v-9.25925925925926z M83.33333333333334 212.96296296296296h9.25925925925926v9.25925925925926h-9.25925925925926v-9.25925925925926z M92.59259259259261 212.96296296296296h9.25925925925926v9.25925925925926h-9.25925925925926v-9.25925925925926z M101.85185185185185 212.96296296296296h9.25925925925926v9.25925925925926h-9.25925925925926v-9.25925925925926z M111.11111111111111 212.96296296296296h9.25925925925926v9.25925925925926h-9.25925925925926v-9.25925925925926z M120.37037037037038 212.96296296296296h9.25925925925926v6.481481481481482a2.7777777777777777 2.7777777777777777 0 0 1 -2.7777777777777777 2.7777777777777777h-6.481481481481482v-9.25925925925926z M150.92592592592592 212.96296296296296h6.481481481481482v6.481481481481482a2.7777777777777777 2.7777777777777777 0 0 1 -2.7777777777777777 2.7777777777777777h-6.481481481481482v-6.481481481481482a2.7777777777777777 2.7777777777777777 0 0 1 2.7777777777777777 -2.7777777777777777z M203.70370370370372 212.96296296296296h9.25925925925926v9.25925925925926h-9.25925925925926v-9.25925925925926z M212.96296296296296 212.96296296296296h9.25925925925926v6.481481481481482a2.7777777777777777 2.7777777777777777 0 0 1 -2.7777777777777777 2.7777777777777777h-6.481481481481482v-9.25925925925926z M231.4814814814815 212.96296296296296h9.25925925925926v9.25925925925926h-9.25925925925926v-9.25925925925926z M83.33333333333334 222.22222222222223h9.25925925925926v9.25925925925926h-9.25925925925926v-9.25925925925926z M111.11111111111111 222.22222222222223h9.25925925925926v9.25925925925926h-9.25925925925926v-9.25925925925926z M141.66666666666666 222.22222222222223h6.481481481481482v6.481481481481482a2.7777777777777777 2.7777777777777777 0 0 1 -2.7777777777777777 2.7777777777777777h-6.481481481481482v-6.481481481481482a2.7777777777777777 2.7777777777777777 0 0 1 2.7777777777777777 -2.7777777777777777z M160.1851851851852 222.22222222222223h6.481481481481482v6.481481481481482a2.7777777777777777 2.7777777777777777 0 0 1 -2.7777777777777777 2.7777777777777777h-6.481481481481482v-6.481481481481482a2.7777777777777777 2.7777777777777777 0 0 1 2.7777777777777777 -2.7777777777777777z M187.96296296296296 222.22222222222223h6.481481481481482v9.25925925925926h-9.25925925925926v-6.481481481481482a2.7777777777777777 2.7777777777777777 0 0 1 2.7777777777777777 -2.7777777777777777z M194.44444444444446 222.22222222222223h9.25925925925926v9.25925925925926h-9.25925925925926v-9.25925925925926z M203.70370370370372 222.22222222222223h9.25925925925926v9.25925925925926h-9.25925925925926v-9.25925925925926z M231.4814814814815 222.22222222222223h9.25925925925926v9.25925925925926h-9.25925925925926v-9.25925925925926z M83.33333333333334 231.4814814814815h9.25925925925926v9.25925925925926h-9.25925925925926v-9.25925925925926z M92.59259259259261 231.4814814814815h9.25925925925926v9.25925925925926h-9.25925925925926v-9.25925925925926z M101.85185185185185 231.4814814814815h9.25925925925926v9.25925925925926h-9.25925925925926v-9.25925925925926z M111.11111111111111 231.4814814814815h9.25925925925926v6.481481481481482a2.7777777777777777 2.7777777777777777 0 0 1 -2.7777777777777777 2.7777777777777777h-6.481481481481482v-9.25925925925926z M169.44444444444446 231.4814814814815h6.481481481481482v6.481481481481482a2.7777777777777777 2.7777777777777777 0 0 1 -2.7777777777777777 2.7777777777777777h-6.481481481481482v-6.481481481481482a2.7777777777777777 2.7777777777777777 0 0 1 2.7777777777777777 -2.7777777777777777z M185.1851851851852 231.4814814814815h9.25925925925926v9.25925925925926h-9.25925925925926v-9.25925925925926z M194.44444444444446 231.4814814814815h9.25925925925926v9.25925925925926h-9.25925925925926v-9.25925925925926z M203.70370370370372 231.4814814814815h9.25925925925926v9.25925925925926h-9.25925925925926v-9.25925925925926z M212.96296296296296 231.4814814814815h9.25925925925926v9.25925925925926h-9.25925925925926v-9.25925925925926z M222.22222222222223 231.4814814814815h9.25925925925926v9.25925925925926h-9.25925925925926v-9.25925925925926z M231.4814814814815 231.4814814814815h9.25925925925926v6.481481481481482a2.7777777777777777 2.7777777777777777 0 0 1 -2.7777777777777777 2.7777777777777777h-6.481481481481482v-9.25925925925926z"/><path class="qr-corner-square" fill-rule="evenodd" fill="#000000" d="M9.25925925925926 9.25925925925926h64.81481481481481v64.81481481481481h-64.81481481481481z M18.51851851851852 18.51851851851852v46.2962962962963h46.2962962962963v-46.2962962962963z M175.92592592592595 9.25925925925926h64.81481481481481v64.81481481481481h-64.81481481481481z M185.18518518518522 18.51851851851852v46.2962962962963h46.2962962962963v-46.2962962962963z M9.25925925925926 175.92592592592595h64.81481481481481v64.81481481481481h-64.81481481481481z M18.51851851851852 185.18518518518522v46.2962962962963h46.2962962962963v-46.2962962962963z"/><path class="qr-corner-dot" fill="#000000" d="M27.77777777777778 27.77777777777778h27.77777777777778v27.77777777777778h-27.77777777777778z M194.44444444444446 27.77777777777778h27.77777777777778v27.77777777777778h-27.77777777777778z M27.77777777777778 194.44444444444446h27.77777777777778v27.77777777777778h-27.77777777777778z"/></svg>